# Made in Blockbench 5.1.4
mtllib planks.mtl

o mesh
v 0.8291477505731325 0.524093609148353 0.0625
v 0.8834128060940482 0.21634118633203805 0.0625
v 0.8291477505731325 0.524093609148353 -0.0625
v 0.8834128060940482 0.21634118633203805 -0.0625
v -0.8942658171982313 0.22020929823122493 0.0625
v -0.8942658171982313 0.22020929823122493 -0.0625
v -0.8400007616773156 -0.08754312458509006 0.0625
v -0.8400007616773156 -0.08754312458509006 -0.0625
vt 1 1
vt 0.8984375 1
vt 0.8984375 0.796875
vt 1 1
vt 0.8984375 0.796875
vt 1 0.796875
vt 0.8828125 0.8125
vt 0.8828125 1
vt 0.7734375 1
vt 0.8828125 0.8125
vt 0.7734375 1
vt 0.7734375 0.8125
vt 0.0078125 0.3515625
vt 0.9921875 0.3515625
vt 0.9921875 0.4609375
vt 0.0078125 0.3515625
vt 0.9921875 0.4609375
vt 0.0078125 0.4609375
vt 1 0.234375
vt 1 0.328125
vt 0 0.328125
vt 1 0.234375
vt 0 0.328125
vt 0 0.234375
vt 0.984375 0.4609375
vt 0.984375 0.6875
vt 0 0.6875
vt 0.984375 0.4609375
vt 0 0.6875
vt 0 0.4609375
vt 1 0.2265625
vt 0.015625 0.2265625
vt 0.015625 0
vt 1 0.2265625
vt 0.015625 0
vt 1 0
vn 0.984807753012208 0.17364817766693036 0
vn 0.984807753012208 0.17364817766693036 0
vn -0.984807753012208 -0.17364817766693036 0
vn -0.984807753012208 -0.17364817766693036 0
vn -0.17364817766693036 0.984807753012208 0
vn -0.17364817766693036 0.984807753012208 0
vn 0.17364817766693036 -0.984807753012208 0
vn 0.17364817766693036 -0.984807753012208 0
vn 0 0 1
vn 0 0 1
vn 0 0 -1
vn 0 0 -1
usemtl m_e9f85447-4a46-e054-6d71-a8f134f90bb0
f 3/1/1 1/2/1 2/3/1
f 3/4/2 2/5/2 4/6/2
f 7/7/3 5/8/3 6/9/3
f 7/10/4 6/11/4 8/12/4
f 5/13/5 1/14/5 3/15/5
f 5/16/6 3/17/6 6/18/6
f 4/19/7 2/20/7 7/21/7
f 4/22/8 7/23/8 8/24/8
f 2/25/9 1/26/9 5/27/9
f 2/28/10 5/29/10 7/30/10
f 6/31/11 3/32/11 4/33/11
f 6/34/12 4/35/12 8/36/12
o mesh
v 0.8942658171982313 0.7202092982312249 0
v 0.8942658171982313 0.7202092982312249 0.125
v 0.8400007616773156 0.41245687541490994 0.125
v 0.8400007616773156 0.41245687541490994 0
v -0.8834128060940482 0.716341186332038 0.125
v -0.8291477505731325 1.024093609148353 0.125
v -0.8291477505731325 1.024093609148353 0
v -0.8834128060940482 0.716341186332038 0
vt 1 1
vt 0.8984375 1
vt 0.8984375 0.796875
vt 1 1
vt 0.8984375 0.796875
vt 1 0.796875
vt 0.8828125 0.8125
vt 0.8828125 1
vt 0.7734375 1
vt 0.8828125 0.8125
vt 0.7734375 1
vt 0.7734375 0.8125
vt 0.0078125 0.3515625
vt 0.9921875 0.3515625
vt 0.9921875 0.4609375
vt 0.0078125 0.3515625
vt 0.9921875 0.4609375
vt 0.0078125 0.4609375
vt 1 0.234375
vt 1 0.328125
vt 0 0.328125
vt 1 0.234375
vt 0 0.328125
vt 0 0.234375
vt 0.984375 0.4609375
vt 0.984375 0.6875
vt 0 0.6875
vt 0.984375 0.4609375
vt 0 0.6875
vt 0 0.4609375
vt 1 0.2265625
vt 0.015625 0.2265625
vt 0.015625 0
vt 1 0.2265625
vt 0.015625 0
vt 1 0
vn 0.984807753012208 -0.17364817766693036 0
vn 0.984807753012208 -0.17364817766693036 0
vn -0.984807753012208 0.17364817766693036 0
vn -0.984807753012208 0.17364817766693036 0
vn 0.17364817766693036 0.984807753012208 0
vn 0.17364817766693036 0.984807753012208 0
vn -0.17364817766693036 -0.984807753012208 0
vn -0.17364817766693036 -0.984807753012208 0
vn 0 0 1
vn 0 0 1
vn 0 0 -1
vn 0 0 -1
usemtl m_e9f85447-4a46-e054-6d71-a8f134f90bb0
f 9/37/13 10/38/13 11/39/13
f 9/40/14 11/41/14 12/42/14
f 13/43/15 14/44/15 15/45/15
f 13/46/16 15/47/16 16/48/16
f 14/49/17 10/50/17 9/51/17
f 14/52/18 9/53/18 15/54/18
f 12/55/19 11/56/19 13/57/19
f 12/58/20 13/59/20 16/60/20
f 11/61/21 10/62/21 14/63/21
f 11/64/22 14/65/22 13/66/22
f 15/67/23 9/68/23 12/69/23
f 15/70/24 12/71/24 16/72/24
o mesh
v 0.882345829015126 1.2741545776019294 -0.0625
v 0.882345829015126 1.2741545776019294 0.0625
v 0.8687147704634586 0.9619520083575988 0.0625
v 0.8687147704634586 0.9619520083575988 -0.0625
v -0.8796196173047925 1.0382859362469368 0.0625
v -0.8659885587531251 1.3504885054912674 0.0625
v -0.8659885587531251 1.3504885054912674 -0.0625
v -0.8796196173047925 1.0382859362469368 -0.0625
vt 1 1
vt 0.8984375 1
vt 0.8984375 0.796875
vt 1 1
vt 0.8984375 0.796875
vt 1 0.796875
vt 0.8828125 0.8125
vt 0.8828125 1
vt 0.7734375 1
vt 0.8828125 0.8125
vt 0.7734375 1
vt 0.7734375 0.8125
vt 0.0078125 0.3515625
vt 0.9921875 0.3515625
vt 0.9921875 0.4609375
vt 0.0078125 0.3515625
vt 0.9921875 0.4609375
vt 0.0078125 0.4609375
vt 1 0.234375
vt 1 0.328125
vt 0 0.328125
vt 1 0.234375
vt 0 0.328125
vt 0 0.234375
vt 0.984375 0.4609375
vt 0.984375 0.6875
vt 0 0.6875
vt 0.984375 0.4609375
vt 0 0.6875
vt 0 0.4609375
vt 1 0.2265625
vt 0.015625 0.2265625
vt 0.015625 0
vt 1 0.2265625
vt 0.015625 0
vt 1 0
vn 0.9990482215818578 -0.043619387365336 0
vn 0.9990482215818578 -0.043619387365336 0
vn -0.9990482215818578 0.043619387365336 0
vn -0.9990482215818578 0.043619387365336 0
vn 0.043619387365336 0.9990482215818578 0
vn 0.043619387365336 0.9990482215818578 0
vn -0.043619387365336 -0.9990482215818578 0
vn -0.043619387365336 -0.9990482215818578 0
vn 0 0 1
vn 0 0 1
vn 0 0 -1
vn 0 0 -1
usemtl m_e9f85447-4a46-e054-6d71-a8f134f90bb0
f 17/73/25 18/74/25 19/75/25
f 17/76/26 19/77/26 20/78/26
f 21/79/27 22/80/27 23/81/27
f 21/82/28 23/83/28 24/84/28
f 22/85/29 18/86/29 17/87/29
f 22/88/30 17/89/30 23/90/30
f 20/91/31 19/92/31 21/93/31
f 20/94/32 21/95/32 24/96/32
f 19/97/33 18/98/33 22/99/33
f 19/100/34 22/101/34 21/102/34
f 23/103/35 17/104/35 20/105/35
f 23/106/36 20/107/36 24/108/36
o mesh
v 0.7137783895806875 1.789723689092484 0.0625
v 0.7137783895806875 1.789723689092484 0.1875
v 0.8458465963746561 1.5065025056435308 0.1875
v 0.8458465963746561 1.5065025056435308 0.0625
v -0.7401920309394813 0.7669205475973067 0.1875
v -0.8722602377334499 1.0501417310462597 0.1875
v -0.8722602377334499 1.0501417310462597 0.0625
v -0.7401920309394813 0.7669205475973067 0.0625
vt 1 1
vt 0.8984375 1
vt 0.8984375 0.796875
vt 1 1
vt 0.8984375 0.796875
vt 1 0.796875
vt 0.8828125 0.8125
vt 0.8828125 1
vt 0.7734375 1
vt 0.8828125 0.8125
vt 0.7734375 1
vt 0.7734375 0.8125
vt 0.0078125 0.3515625
vt 0.9921875 0.3515625
vt 0.9921875 0.4609375
vt 0.0078125 0.3515625
vt 0.9921875 0.4609375
vt 0.0078125 0.4609375
vt 1 0.234375
vt 1 0.328125
vt 0 0.328125
vt 1 0.234375
vt 0 0.328125
vt 0 0.234375
vt 0.984375 0.4609375
vt 0.984375 0.6875
vt 0 0.6875
vt 0.984375 0.4609375
vt 0 0.6875
vt 0 0.4609375
vt 1 0.2265625
vt 0.015625 0.2265625
vt 0.015625 0
vt 1 0.2265625
vt 0.015625 0
vt 1 0
vn 0.9063077870366499 0.4226182617406996 0
vn 0.9063077870366499 0.4226182617406996 0
vn -0.9063077870366499 -0.4226182617406996 0
vn -0.9063077870366499 -0.4226182617406996 0
vn -0.4226182617406996 0.9063077870366499 0
vn -0.4226182617406996 0.9063077870366499 0
vn 0.4226182617406996 -0.9063077870366499 0
vn 0.4226182617406996 -0.9063077870366499 0
vn 0 0 1
vn 0 0 1
vn 0 0 -1
vn 0 0 -1
usemtl m_e9f85447-4a46-e054-6d71-a8f134f90bb0
f 25/109/37 26/110/37 27/111/37
f 25/112/38 27/113/38 28/114/38
f 29/115/39 30/116/39 31/117/39
f 29/118/40 31/119/40 32/120/40
f 30/121/41 26/122/41 25/123/41
f 30/124/42 25/125/42 31/126/42
f 28/127/43 27/128/43 29/129/43
f 28/130/44 29/131/44 32/132/44
f 27/133/45 26/134/45 30/135/45
f 27/136/46 30/137/46 29/138/46
f 31/139/47 25/140/47 28/141/47
f 31/142/48 28/143/48 32/144/48
o mesh
v 0.8801477345158302 1.5258794090264127 0
v 0.8801477345158302 1.5258794090264127 0.125
v 0.7605591619017397 1.2371670551166356 0.125
v 0.7605591619017397 1.2371670551166356 0
v -0.8562300199930121 1.9068630617555427 0.125
v -0.7366414473789216 2.1955754156653198 0.125
v -0.7366414473789216 2.1955754156653198 0
v -0.8562300199930121 1.9068630617555427 0
vt 1 1
vt 0.8984375 1
vt 0.8984375 0.796875
vt 1 1
vt 0.8984375 0.796875
vt 1 0.796875
vt 0.8828125 0.8125
vt 0.8828125 1
vt 0.7734375 1
vt 0.8828125 0.8125
vt 0.7734375 1
vt 0.7734375 0.8125
vt 0.0078125 0.3515625
vt 0.9921875 0.3515625
vt 0.9921875 0.4609375
vt 0.0078125 0.3515625
vt 0.9921875 0.4609375
vt 0.0078125 0.4609375
vt 1 0.234375
vt 1 0.328125
vt 0 0.328125
vt 1 0.234375
vt 0 0.328125
vt 0 0.234375
vt 0.984375 0.4609375
vt 0.984375 0.6875
vt 0 0.6875
vt 0.984375 0.4609375
vt 0 0.6875
vt 0 0.4609375
vt 1 0.2265625
vt 0.015625 0.2265625
vt 0.015625 0
vt 1 0.2265625
vt 0.015625 0
vt 1 0
vn 0.9238795325112867 -0.3826834323650897 0
vn 0.9238795325112867 -0.3826834323650897 0
vn -0.9238795325112867 0.3826834323650897 0
vn -0.9238795325112867 0.3826834323650897 0
vn 0.3826834323650897 0.9238795325112867 0
vn 0.3826834323650897 0.9238795325112867 0
vn -0.3826834323650897 -0.9238795325112867 0
vn -0.3826834323650897 -0.9238795325112867 0
vn 0 0 1
vn 0 0 1
vn 0 0 -1
vn 0 0 -1
usemtl m_e9f85447-4a46-e054-6d71-a8f134f90bb0
f 33/145/49 34/146/49 35/147/49
f 33/148/50 35/149/50 36/150/50
f 37/151/51 38/152/51 39/153/51
f 37/154/52 39/155/52 40/156/52
f 38/157/53 34/158/53 33/159/53
f 38/160/54 33/161/54 39/162/54
f 36/163/55 35/164/55 37/165/55
f 36/166/56 37/167/56 40/168/56
f 35/169/57 34/170/57 38/171/57
f 35/172/58 38/173/58 37/174/58
f 39/175/59 33/176/59 36/177/59
f 39/178/60 36/179/60 40/180/60
o mesh
v 0.8136765786165474 2.2474401635308277 0.0625
v 0.8136765786165474 2.2474401635308277 0.1875
v 0.8813139579722046 1.9423476613058483 0.1875
v 0.8813139579722046 1.9423476613058483 0.0625
v -0.8272040544876788 1.5635783369141683 0.1875
v -0.8948414338433359 1.8686708391391476 0.1875
v -0.8948414338433359 1.8686708391391476 0.0625
v -0.8272040544876788 1.5635783369141683 0.0625
vt 1 1
vt 0.8984375 1
vt 0.8984375 0.796875
vt 1 1
vt 0.8984375 0.796875
vt 1 0.796875
vt 0.8828125 0.8125
vt 0.8828125 1
vt 0.7734375 1
vt 0.8828125 0.8125
vt 0.7734375 1
vt 0.7734375 0.8125
vt 0.0078125 0.3515625
vt 0.9921875 0.3515625
vt 0.9921875 0.4609375
vt 0.0078125 0.3515625
vt 0.9921875 0.4609375
vt 0.0078125 0.4609375
vt 1 0.234375
vt 1 0.328125
vt 0 0.328125
vt 1 0.234375
vt 0 0.328125
vt 0 0.234375
vt 0.984375 0.4609375
vt 0.984375 0.6875
vt 0 0.6875
vt 0.984375 0.4609375
vt 0 0.6875
vt 0 0.4609375
vt 1 0.2265625
vt 0.015625 0.2265625
vt 0.015625 0
vt 1 0.2265625
vt 0.015625 0
vt 1 0
vn 0.9762960071199334 0.21643961393810288 0
vn 0.9762960071199334 0.21643961393810288 0
vn -0.9762960071199334 -0.21643961393810288 0
vn -0.9762960071199334 -0.21643961393810288 0
vn -0.21643961393810288 0.9762960071199334 0
vn -0.21643961393810288 0.9762960071199334 0
vn 0.21643961393810288 -0.9762960071199334 0
vn 0.21643961393810288 -0.9762960071199334 0
vn 0 0 1
vn 0 0 1
vn 0 0 -1
vn 0 0 -1
usemtl m_e9f85447-4a46-e054-6d71-a8f134f90bb0
f 41/181/61 42/182/61 43/183/61
f 41/184/62 43/185/62 44/186/62
f 45/187/63 46/188/63 47/189/63
f 45/190/64 47/191/64 48/192/64
f 46/193/65 42/194/65 41/195/65
f 46/196/66 41/197/66 47/198/66
f 44/199/67 43/200/67 45/201/67
f 44/202/68 45/203/68 48/204/68
f 43/205/69 42/206/69 46/207/69
f 43/208/70 46/209/70 45/210/70
f 47/211/71 41/212/71 44/213/71
f 47/214/72 44/215/72 48/216/72