# Blender 4.2.3 LTS
# www.blender.org
mtllib FireHydrant.mtl
o FireHydrant
v 0.004438 0.125809 -0.366480
v 0.004438 1.725809 -0.366480
v 0.274438 0.125809 -0.276480
v 0.274438 1.725809 -0.276480
v 0.364438 0.125809 -0.006480
v 0.364438 1.725809 -0.006480
v 0.274438 0.125809 0.263520
v 0.274438 1.725809 0.263520
v 0.004438 0.125809 0.353520
v 0.004438 1.725809 0.353520
v -0.265562 0.125809 0.263520
v -0.265562 1.725809 0.263520
v -0.355562 0.125809 -0.006480
v -0.355562 1.725809 -0.006480
v -0.265562 0.125809 -0.276480
v -0.265562 1.725809 -0.276480
v 0.004438 1.725809 -0.474480
v 0.355438 1.725809 -0.357480
v 0.472438 1.725809 -0.006480
v 0.355438 1.725809 0.344520
v 0.004438 1.725809 0.461520
v -0.346562 1.725809 0.344520
v -0.463562 1.725809 -0.006480
v -0.346562 1.725809 -0.357480
v 0.355438 1.825809 -0.357480
v 0.004438 1.825809 -0.474480
v 0.472438 1.825809 -0.006480
v 0.355438 1.825809 0.344520
v 0.004438 1.825809 0.461520
v -0.346562 1.825809 0.344520
v -0.463562 1.825809 -0.006480
v -0.346562 1.825809 -0.357480
v 0.004438 2.157597 -0.268920
v 0.201268 2.157597 -0.203310
v 0.266878 2.157597 -0.006480
v 0.201268 2.157597 0.190350
v 0.004438 2.157597 0.255960
v -0.192392 2.157597 0.190350
v -0.258002 2.157597 -0.006480
v -0.192392 2.157597 -0.203310
v 0.004438 1.825809 -0.366480
v 0.274438 1.825809 -0.276480
v 0.364438 1.825809 -0.006480
v 0.274438 1.825809 0.263520
v 0.004438 1.825809 0.353520
v -0.265562 1.825809 0.263520
v -0.355562 1.825809 -0.006480
v -0.265562 1.825809 -0.276480
v 0.004438 2.291353 -0.006480
v 0.004438 1.475763 -0.620577
v 0.238322 1.286955 -0.620577
v 0.148986 0.981458 -0.620577
v -0.140110 0.981458 -0.620577
v -0.229446 1.286955 -0.620577
v -0.508607 1.370208 -0.006480
v -0.508607 1.262037 -0.140476
v -0.508607 1.087012 -0.089294
v -0.508607 1.087012 0.076334
v -0.508607 1.262037 0.127516
v 0.526483 1.370208 -0.006480
v 0.526483 1.262037 -0.140476
v 0.526483 1.087012 -0.089294
v 0.526483 1.087012 0.076334
v 0.526483 1.262037 0.127516
v 0.004438 1.475763 -0.366480
v 0.238322 1.286955 -0.288518
v 0.148986 0.981458 -0.318297
v 0.004438 0.981458 -0.366480
v -0.140110 0.981458 -0.318297
v -0.229446 1.286955 -0.288518
v -0.355562 1.385941 -0.006480
v -0.305934 1.265751 -0.155365
v -0.324890 1.071279 -0.098496
v -0.355562 1.071279 -0.006480
v -0.324890 1.071279 0.085536
v -0.305934 1.265751 0.142405
v 0.364438 1.385941 -0.006480
v 0.314810 1.265751 -0.155365
v 0.333766 1.071279 -0.098496
v 0.364438 1.071279 -0.006480
v 0.333766 1.071279 0.085536
v 0.314810 1.265751 0.142405
v 0.057856 0.000000 -0.617052
v 0.057856 0.125809 -0.617052
v 0.601634 0.000000 -0.144354
v 0.601634 0.125809 -0.144354
v 0.320107 0.000000 0.518881
v 0.320107 0.125809 0.518881
v -0.397663 0.000000 0.456085
v -0.397663 0.125809 0.456085
v -0.559743 0.000000 -0.245960
v -0.559743 0.125809 -0.245960
vn -0.0000 -0.0000 -1.0000
vn 0.7071 -0.0000 -0.7071
vn 1.0000 -0.0000 -0.0000
vn 0.7071 -0.0000 0.7071
vn -0.0000 -0.0000 1.0000
vn -0.7071 -0.0000 0.7071
vn -1.0000 -0.0000 -0.0000
vn -0.7071 -0.0000 -0.7071
vn -0.0000 -1.0000 -0.0000
vn -0.0000 1.0000 -0.0000
vn -0.7986 0.6019 -0.0000
vn -0.5646 0.6021 0.5646
vn -0.0000 0.6019 -0.7986
vn 0.5646 0.6021 -0.5646
vn 0.6750 0.2977 -0.6750
vn -0.0000 0.2821 -0.9594
vn -0.5646 0.6021 -0.5646
vn -0.6750 0.2977 -0.6750
vn -0.9594 0.2821 -0.0000
vn -0.6750 0.2977 0.6750
vn 0.5646 0.6021 0.5646
vn -0.0000 0.6019 0.7986
vn -0.0000 0.2821 0.9594
vn 0.6750 0.2977 0.6750
vn 0.7986 0.6019 -0.0000
vn 0.9594 0.2821 -0.0000
vn 0.9650 0.2622 -0.0000
vn 0.9543 0.2989 -0.0000
vn 0.6813 -0.7320 -0.0000
vn 0.5997 -0.8002 -0.0000
vn -0.5997 -0.8002 -0.0000
vn -0.6813 -0.7320 -0.0000
vn -0.9650 0.2622 -0.0000
vn -0.9543 0.2989 -0.0000
vn -0.0818 0.2561 -0.9632
vn -0.0819 0.2965 -0.9515
vn -0.0888 0.9961 -0.0000
vn -0.0983 -0.7271 -0.6795
vn -0.1010 -0.7922 -0.6019
vn -0.0983 -0.7271 0.6795
vn -0.1010 -0.7922 0.6019
vn -0.0935 -0.9956 -0.0000
vn -0.0818 0.2561 0.9632
vn -0.0819 0.2965 0.9515
vn 0.0845 0.9964 -0.0000
vn 0.0782 0.2967 -0.9518
vn 0.0781 0.2564 -0.9634
vn 0.0962 -0.7927 -0.6019
vn 0.0936 -0.7275 -0.6797
vn 0.0962 -0.7927 0.6019
vn 0.0936 -0.7275 0.6797
vn 0.0888 -0.9961 -0.0000
vn 0.0782 0.2967 0.9518
vn 0.0781 0.2564 0.9634
vn 0.0872 -0.0000 -0.9962
vn 0.0700 0.5957 -0.8001
vn 0.7826 0.5957 -0.1807
vn 0.9744 -0.0000 -0.2250
vn 0.4137 0.5957 0.6885
vn 0.5150 -0.0000 0.8572
vn -0.5270 0.5957 0.6062
vn -0.6561 -0.0000 0.7547
vn -0.7394 0.5957 -0.3138
vn -0.9205 -0.0000 -0.3907
vt 0.476562 0.000000
vt 0.476562 0.460938
vt 0.554688 0.460938
vt 0.554688 0.000000
vt 0.640625 0.460938
vt 0.640625 0.000000
vt 0.718750 0.460938
vt 0.718750 0.000000
vt 0.804688 0.460938
vt 0.804688 0.000000
vt 0.156250 0.000000
vt 0.156250 0.460938
vt 0.242188 0.460938
vt 0.242188 0.000000
vt 0.304688 0.460938
vt 0.304688 0.000000
vt 0.398438 0.460938
vt 0.398438 0.000000
vt 0.812500 0.531250
vt 0.812500 0.625000
vt 0.757812 0.703125
vt 0.664062 0.703125
vt 0.593750 0.640625
vt 0.593750 0.554688
vt 0.648438 0.476562
vt 0.742188 0.476562
vt 0.570312 0.523438
vt 0.570312 0.632812
vt 0.507812 0.710938
vt 0.406250 0.710938
vt 0.328125 0.648438
vt 0.328125 0.546875
vt 0.382812 0.468750
vt 0.492188 0.468750
vt 0.125000 0.656250
vt 0.125000 0.757812
vt 0.156250 0.757812
vt 0.156250 0.656250
vt 0.093750 0.656250
vt 0.093750 0.546875
vt 0.125000 0.546875
vt 0.093750 0.445312
vt 0.093750 0.335938
vt 0.125000 0.335938
vt 0.125000 0.445312
vt 0.156250 0.445312
vt 0.156250 0.335938
vt 0.156250 0.546875
vt 0.093750 0.757812
vt 0.843750 0.796875
vt 0.789062 0.796875
vt 0.812500 0.718750
vt 0.453125 0.718750
vt 0.515625 0.765625
vt 0.515625 0.843750
vt 0.468750 0.914062
vt 0.382812 0.914062
vt 0.320312 0.859375
vt 0.320312 0.781250
vt 0.367188 0.718750
vt 0.867188 0.234375
vt 0.914062 0.265625
vt 0.882812 0.359375
vt 0.812500 0.320312
vt 0.914062 0.101562
vt 0.867188 0.140625
vt 0.812500 0.054688
vt 0.882812 0.015625
vt 0.843750 0.898438
vt 0.757812 0.890625
vt 0.625000 0.820312
vt 0.578125 0.851562
vt 0.593750 0.726562
vt 0.976562 0.265625
vt 0.976562 0.367188
vt 0.976562 0.101562
vt 0.976562 0.000000
vt 0.742188 0.765625
vt 0.679688 0.843750
vt 0.679688 0.820312
vt 0.679688 0.718750
vt 0.648438 0.898438
vt 0.945312 0.187500
vt -0.000000 0.429688
vt 0.093750 0.429688
vt 0.093750 0.515625
vt 0.023438 0.515625
vt 0.007812 0.335938
vt 0.093750 0.687500
vt 0.093750 0.773438
vt 0.007812 0.773438
vt 0.023438 0.734375
vt 0.007812 0.687500
vt -0.000000 0.601562
vt 0.093750 0.601562
vt 0.304688 0.812500
vt 0.304688 0.898438
vt 0.218750 0.914062
vt 0.164062 0.835938
vt 0.218750 0.773438
vt 0.906250 0.546875
vt 0.960938 0.554688
vt 0.960938 0.601562
vt 0.921875 0.601562
vt 0.914062 0.492188
vt 0.960938 0.500000
vt 0.929688 0.437500
vt 0.968750 0.453125
vt 0.968750 0.500000
vt 0.929688 0.468750
vt 0.914062 0.656250
vt 0.968750 0.648438
vt 0.968750 0.703125
vt 0.929688 0.703125
vt 0.296875 0.812500
vt 0.296875 0.890625
vt 0.218750 0.906250
vt 0.171875 0.835938
vt 0.218750 0.781250
vt 0.890625 0.554688
vt 0.890625 0.601562
vt 0.828125 0.609375
vt 0.843750 0.554688
vt 0.890625 0.656250
vt 0.843750 0.664062
vt 0.898438 0.703125
vt 0.851562 0.718750
vt 0.851562 0.687500
vt 0.851562 0.437500
vt 0.898438 0.453125
vt 0.898438 0.507812
vt 0.835938 0.492188
vt 0.890625 0.507812
vt 0.953125 0.921875
vt 0.984375 0.921875
vt 0.984375 0.718750
vt 0.953125 0.718750
vt 0.945312 0.718750
vt 0.914062 0.718750
vt 0.914062 0.921875
vt 0.945312 0.921875
vt 0.875000 0.921875
vt 0.843750 0.921875
vt 0.843750 0.718750
vt 0.875000 0.718750
vt 0.218750 0.765625
vt 0.156250 0.695312
vt 0.210938 0.601562
vt 0.304688 0.640625
vt 0.304688 0.734375
vt 0.109375 0.132812
vt 0.140625 0.132812
vt 0.140625 0.335938
vt 0.109375 0.335938
vt 0.906250 0.718750
vt 0.906250 0.921875
s 1
usemtl Material.005
f 1/1/1 2/2/1 4/3/2 3/4/2
f 3/4/2 4/3/2 6/5/3 5/6/3
f 5/6/3 6/5/3 8/7/4 7/8/4
f 7/8/4 8/7/4 10/9/5 9/10/5
f 9/11/5 10/12/5 12/13/6 11/14/6
f 11/14/6 12/13/6 14/15/7 13/16/7
f 13/16/7 14/15/7 16/17/8 15/18/8
f 15/18/8 16/17/8 2/2/1 1/1/1
f 18/19/9 19/20/9 20/21/9 21/22/9 22/23/9 23/24/9 24/25/9 17/26/9
f 25/27/10 26/28/10 32/29/10 31/30/10 30/31/10 29/32/10 28/33/10 27/34/10
f 22/35/6 21/36/5 29/37/5 30/38/6
f 20/39/4 19/40/3 27/41/3 28/35/4
f 18/42/2 17/43/1 26/44/1 25/45/2
f 17/44/1 24/45/8 32/46/8 26/47/1
f 23/41/7 22/35/6 30/38/6 31/48/7
f 21/49/5 20/39/4 28/35/4 29/36/5
f 19/40/3 18/42/2 25/45/2 27/41/3
f 24/45/8 23/41/7 31/48/7 32/46/8
f 39/50/11 38/51/12 49/52/10
f 41/53/9 42/54/9 43/55/9 44/56/9 45/57/9 46/58/9 47/59/9 48/60/9
f 33/61/13 34/62/14 42/63/15 41/64/16
f 40/65/17 33/66/13 41/67/16 48/68/18
f 38/51/12 39/50/11 47/69/19 46/70/20
f 36/71/21 37/72/22 45/54/23 44/73/24
f 34/62/14 35/74/25 43/75/26 42/63/15
f 39/76/11 40/65/17 48/68/18 47/77/19
f 37/78/22 38/51/12 46/70/20 45/79/23
f 35/80/25 36/71/21 44/73/24 43/81/26
f 37/72/22 36/71/21 49/82/10
f 35/74/25 34/62/14 49/83/10
f 40/65/17 39/76/11 49/83/10
f 38/51/12 37/78/22 49/52/10
f 36/71/21 35/80/25 49/82/10
f 34/62/14 33/61/13 49/83/10
f 33/66/13 40/65/17 49/83/10
f 66/84/27 51/85/28 50/86/10 65/87/10
f 67/88/29 52/43/30 51/85/28 66/84/27
f 53/89/31 52/90/30 67/91/29 68/92/9 69/93/32
f 70/94/33 54/95/34 53/89/31 69/93/32
f 65/87/10 50/86/10 54/95/34 70/94/33
f 54/96/1 50/97/1 51/98/1 52/99/1 53/100/1
f 72/101/35 56/102/36 55/103/37 71/104/37
f 73/105/38 57/106/39 56/102/36 72/101/35
f 75/107/40 58/108/41 57/109/39 73/105/38 74/110/42
f 76/111/43 59/112/44 58/113/41 75/114/40
f 71/104/37 55/103/37 59/112/44 76/111/43
f 59/115/7 55/116/7 56/117/7 57/118/7 58/119/7
f 60/120/45 61/121/46 78/122/47 77/123/45
f 78/122/47 61/121/46 62/124/48 79/125/49
f 79/125/49 62/124/48 63/126/50 81/127/51 80/128/52
f 62/119/3 61/115/3 60/116/3 64/117/3 63/118/3
f 81/129/51 63/130/50 64/131/53 82/132/54
f 64/133/53 60/120/45 77/123/45 82/132/54
f 83/134/55 84/135/56 86/136/57 85/137/58
f 85/138/58 86/139/57 88/140/59 87/141/60
f 87/142/60 88/143/59 90/144/61 89/145/62
f 86/146/57 84/147/56 92/148/63 90/149/61 88/150/59
f 89/151/62 90/152/61 92/153/63 91/154/64
f 91/155/64 92/145/63 84/142/56 83/156/55
o FireHydrantExtra
v 0.048198 0.536073 -0.460153
v -0.036612 0.535037 -0.458367
v 0.048198 0.424039 -0.535334
v -0.036612 0.421339 -0.535574
v 0.048198 0.644551 -0.620577
v -0.036612 0.643937 -0.623232
v 0.048198 0.981912 -0.620577
v -0.036612 0.981458 -0.623249
v 0.004438 0.620066 -0.441761
v 0.004438 0.692056 -0.443380
v 0.196922 0.655810 -0.394936
v 0.224293 0.730278 -0.403608
v 0.375941 0.684909 -0.249518
v 0.397712 0.776399 -0.279618
v 0.506560 0.859387 -0.090938
v 0.505171 0.911628 -0.146171
v 0.522795 1.087012 0.028734
v 0.526441 1.087014 -0.063079
v -0.188046 0.655810 -0.394936
v -0.215417 0.730278 -0.403608
v -0.367065 0.684909 -0.249518
v -0.388836 0.776399 -0.279618
v -0.497683 0.859387 -0.090938
v -0.496295 0.911628 -0.146171
v -0.513919 1.087012 0.055427
v -0.517565 1.087014 -0.036387
v 0.041183 0.678984 -0.444947
v 0.041183 0.923801 -0.444947
v -0.032307 0.678984 -0.444947
v -0.032307 0.923801 -0.444947
v 0.004438 0.824524 -0.366480
v 0.004438 0.981458 -0.366480
v 0.004438 0.824524 -0.523414
v 0.004438 0.981458 -0.523414
vn 0.0119 -0.0992 0.9950
vn 0.0164 -0.3425 0.9394
vn 0.0164 -0.3427 0.9393
vn 0.0461 -0.9929 -0.1101
vn 0.0461 -0.9928 -0.1109
vn 0.0277 -0.1851 -0.9823
vn 0.0277 -0.1847 -0.9824
vn 0.0314 -0.0000 -0.9995
vn -0.0000 -0.1126 -0.9936
vn 0.4932 -0.2727 -0.8261
vn 0.3842 -0.2066 -0.8998
vn 0.7886 -0.3480 -0.5070
vn 0.7291 -0.3507 -0.5878
vn 0.9629 -0.2049 -0.1758
vn 0.9514 -0.2278 -0.2071
vn 0.9963 -0.0852 -0.0150
vn -0.3842 -0.2066 -0.8998
vn -0.4932 -0.2727 -0.8261
vn -0.7291 -0.3507 -0.5878
vn -0.7886 -0.3480 -0.5070
vn -0.9538 -0.2230 -0.2012
vn -0.9612 -0.2082 -0.1811
vn -0.9964 -0.0836 -0.0144
vn -0.0000 -0.0000 -1.0000
vn -1.0000 -0.0000 -0.0000
vt 0.398438 1.000000
vt 0.703125 1.000000
vt 0.703125 0.945312
vt 0.398438 0.945312
vt 1.000000 1.000000
vt 1.000000 0.945312
vt 0.242188 1.000000
vt 0.406250 1.000000
vt 0.406250 0.945312
vt 0.242188 0.945312
vt 0.796875 1.000000
vt 0.796875 0.945312
vt 0.492188 1.000000
vt 0.492188 0.945312
vt 0.390625 0.945312
vt 0.390625 1.000000
vt 0.039062 0.234375
vt -0.000000 0.234375
vt -0.000000 0.078125
vt 0.039062 0.078125
vt 0.078125 0.078125
vt 0.078125 0.000000
vt -0.000000 0.000000
s 1
usemtl Material.005
f 121/157/65 94/158/66 93/159/67 119/160/65
f 94/158/66 96/161/68 95/162/69 93/159/67
f 96/157/68 98/158/70 97/159/71 95/160/69
f 98/158/70 100/161/72 99/162/72 97/159/71
f 102/163/73 104/164/74 103/165/75 101/166/73
f 104/167/74 106/161/76 105/162/77 103/168/75
f 106/169/76 108/158/78 107/159/79 105/170/77
f 108/167/78 110/161/80 109/162/80 107/168/79
f 102/163/73 101/166/73 111/171/81 112/172/82
f 112/167/82 111/168/81 113/162/83 114/161/84
f 114/169/84 113/170/83 115/159/85 116/158/86
f 116/167/86 115/168/85 117/162/87 118/161/87
f 122/173/88 120/174/88 119/175/88 121/176/88
f 125/177/89 123/178/89 124/179/89 126/175/89
